<svg xmlns="http://www.w3.org/2000/svg" viewBox="0 0 1024 1024"><rect width="1024" height="1024" fill="#f5eedb"/><line x1="0" y1="12" x2="1024" y2="12" stroke="#dccfac" stroke-width="3"/><line x1="0" y1="36" x2="1024" y2="36" stroke="#dccfac" stroke-width="3"/><line x1="0" y1="60" x2="1024" y2="60" stroke="#dccfac" stroke-width="3"/><line x1="0" y1="84" x2="1024" y2="84" stroke="#dccfac" stroke-width="3"/><line x1="0" y1="108" x2="1024" y2="108" stroke="#dccfac" stroke-width="3"/><line x1="0" y1="132" x2="1024" y2="132" stroke="#dccfac" stroke-width="3"/><line x1="0" y1="156" x2="1024" y2="156" stroke="#dccfac" stroke-width="3"/><line x1="0" y1="180" x2="1024" y2="180" stroke="#dccfac" stroke-width="3"/><line x1="0" y1="204" x2="1024" y2="204" stroke="#dccfac" stroke-width="3"/><line x1="0" y1="228" x2="1024" y2="228" stroke="#dccfac" stroke-width="3"/><line x1="0" y1="252" x2="1024" y2="252" stroke="#dccfac" stroke-width="3"/><line x1="0" y1="276" x2="1024" y2="276" stroke="#dccfac" stroke-width="3"/><line x1="0" y1="300" x2="1024" y2="300" stroke="#dccfac" stroke-width="3"/><line x1="0" y1="324" x2="1024" y2="324" stroke="#dccfac" stroke-width="3"/><line x1="0" y1="348" x2="1024" y2="348" stroke="#dccfac" stroke-width="3"/><line x1="0" y1="372" x2="1024" y2="372" stroke="#dccfac" stroke-width="3"/><line x1="0" y1="396" x2="1024" y2="396" stroke="#dccfac" stroke-width="3"/><line x1="0" y1="420" x2="1024" y2="420" stroke="#dccfac" stroke-width="3"/><line x1="0" y1="444" x2="1024" y2="444" stroke="#dccfac" stroke-width="3"/><line x1="0" y1="468" x2="1024" y2="468" stroke="#dccfac" stroke-width="3"/><line x1="0" y1="492" x2="1024" y2="492" stroke="#dccfac" stroke-width="3"/><line x1="0" y1="516" x2="1024" y2="516" stroke="#dccfac" stroke-width="3"/><line x1="0" y1="540" x2="1024" y2="540" stroke="#dccfac" stroke-width="3"/><line x1="0" y1="564" x2="1024" y2="564" stroke="#dccfac" stroke-width="3"/><line x1="0" y1="588" x2="1024" y2="588" stroke="#dccfac" stroke-width="3"/><line x1="0" y1="612" x2="1024" y2="612" stroke="#dccfac" stroke-width="3"/><line x1="0" y1="636" x2="1024" y2="636" stroke="#dccfac" stroke-width="3"/><line x1="0" y1="660" x2="1024" y2="660" stroke="#dccfac" stroke-width="3"/><line x1="0" y1="684" x2="1024" y2="684" stroke="#dccfac" stroke-width="3"/><line x1="0" y1="708" x2="1024" y2="708" stroke="#dccfac" stroke-width="3"/><line x1="0" y1="732" x2="1024" y2="732" stroke="#dccfac" stroke-width="3"/><line x1="0" y1="756" x2="1024" y2="756" stroke="#dccfac" stroke-width="3"/><line x1="0" y1="780" x2="1024" y2="780" stroke="#dccfac" stroke-width="3"/><line x1="0" y1="804" x2="1024" y2="804" stroke="#dccfac" stroke-width="3"/><line x1="0" y1="828" x2="1024" y2="828" stroke="#dccfac" stroke-width="3"/><line x1="0" y1="852" x2="1024" y2="852" stroke="#dccfac" stroke-width="3"/><line x1="0" y1="876" x2="1024" y2="876" stroke="#dccfac" stroke-width="3"/><line x1="0" y1="900" x2="1024" y2="900" stroke="#dccfac" stroke-width="3"/><line x1="0" y1="924" x2="1024" y2="924" stroke="#dccfac" stroke-width="3"/><line x1="0" y1="948" x2="1024" y2="948" stroke="#dccfac" stroke-width="3"/><line x1="0" y1="972" x2="1024" y2="972" stroke="#dccfac" stroke-width="3"/><line x1="0" y1="996" x2="1024" y2="996" stroke="#dccfac" stroke-width="3"/><line x1="0" y1="1020" x2="1024" y2="1020" stroke="#dccfac" stroke-width="3"/><g transform="translate(512,512) scale(1.0) rotate(-7)"><rect x="-444" y="-326" width="888" height="652" fill="#dccfac" transform="translate(24,30)"/><rect x="-444" y="-326" width="888" height="652" fill="#efe6cf" stroke="#3f2c1d" stroke-width="10"/><path d="M -444 -326 L 0 40 L 444 -326" fill="#f5eedb" stroke="#3f2c1d" stroke-width="11" stroke-linejoin="round"/><path d="M -408 -326 L 0 -4 L 408 -326" fill="none" stroke="#dccfac" stroke-width="10"/><path d="M 256 24 L 230 73 L 246 133 L 200 169 L 181 225 L 118 229 L 79 268 L 24 255 L -28 288 L -76 259 L -136 260 L -161 202 L -209 176 L -211 118 L -256 78 L -245 24 L -266 -33 L -223 -75 L -210 -128 L -155 -149 L -129 -199 L -75 -208 L -28 -245 L 26 -223 L 80 -224 L 118 -180 L 169 -164 L 197 -119 L 243 -84 L 247 -29 Z" fill="#dccfac" transform="translate(13,16)"/><path d="M 256 24 L 230 73 L 246 133 L 200 169 L 181 225 L 118 229 L 79 268 L 24 255 L -28 288 L -76 259 L -136 260 L -161 202 L -209 176 L -211 118 L -256 78 L -245 24 L -266 -33 L -223 -75 L -210 -128 L -155 -149 L -129 -199 L -75 -208 L -28 -245 L 26 -223 L 80 -224 L 118 -180 L 169 -164 L 197 -119 L 243 -84 L 247 -29 Z" fill="#3f2c1d" stroke="#3f2c1d" stroke-width="20" stroke-linejoin="round"/><path d="M 256 24 L 230 73 L 246 133 L 200 169 L 181 225 L 118 229 L 79 268 L 24 255 L -28 288 L -76 259 L -136 260 L -161 202 L -209 176 L -211 118 L -256 78 L -245 24 L -266 -33 L -223 -75 L -210 -128 L -155 -149 L -129 -199 L -75 -208 L -28 -245 L 26 -223 L 80 -224 L 118 -180 L 169 -164 L 197 -119 L 243 -84 L 247 -29 Z" fill="#d2542a"/><circle cx="0" cy="24" r="192" fill="none" stroke="#3f2c1d" stroke-width="11"/><circle cx="0" cy="24" r="170" fill="none" stroke="#3f2c1d" stroke-width="5"/><text x="0" y="98" text-anchor="middle" font-family="EB Garamond" font-weight="600" font-size="214" letter-spacing="4" fill="#3f2c1d">T·L</text><path d="M -156 -115 A 207 207 0 0 1 30 -183" fill="none" stroke="#efe6cf" stroke-width="7" stroke-linecap="round" opacity="0.55"/></g></svg>